# xmcd
#
# Track frame offsets:
#	150
#	23137
#	37853
#	66651
#	103258
#	128711
#	150156
#	171813
#	194777
#
# Disc length: 3004 seconds
#
# Revision: 0
# Processed by: cddbd v1.5.2PL0 Copyright (c) Steve Scherf et al.
# Submitted via: dBpowerAMP V4.0
#
DISCID=760bba09
DTITLE=Blue Hammer - Alive And Well
DYEAR=2009
DGENRE=Blues
TTITLE0=01 You Don't Know
TTITLE1=02 If You Love Me Like You Say
TTITLE2=03 Sick And Tired
TTITLE3=04 Three Hours Past Midnite
TTITLE4=05 Evening Sun
TTITLE5=06 Diddy Wha Diddy
TTITLE6=07 I Don't Believe
TTITLE7=08 The Crawl
TTITLE8=09 Loan A Helpin' Hand
EXTD=
EXTT0=
EXTT1=
EXTT2=
EXTT3=
EXTT4=
EXTT5=
EXTT6=
EXTT7=
EXTT8=
PLAYORDER=
